# xmcd
#
# Track frame offsets: 
#        182
#        11010
#        21275
#        31730
#        42505
#        52617
#        61525
#        70877
#        82697
#        91742
#        104517
#        113877
#        122965
#        132082
#        145005
#        157042
#        169340
#        180170
#        192770
#        206022
#        216697
#        229690
#        238532
#        248672
#        258275
#        273105
#
# Disc length: 3784 seconds
#
# Revision: 0
# Processed by: cddbd v1.5.1PL0 Copyright (c) Steve Scherf et al.
# Submitted via: ExactAudioCopy v0.95a4
#
DISCID=570ec61a
DTITLE=Jerry Lee Lewis - The Locust Years - Disc 6
DYEAR=1900
DGENRE=Country
TTITLE0=Jackson (& Linda Gail Lewis)
TTITLE1=Swet Thang (& Linda Gail Lewis)
TTITLE2=He'll Have To Go
TTITLE3=You've Still Got A Place In My Heart
TTITLE4=I Get The Blues When It Rains
TTITLE5=Gotta Travel On (& Linda Gail Lewis)
TTITLE6=Milwaukee Here I Come (& Linda Gail Lewis)
TTITLE7=Cryin' Time (& Linda Gail Lewis)
TTITLE8=Roll Over Beethoven (& Linda Gail Lewis)
TTITLE9=Secret Places (& Linda Gail Lewis)
TTITLE10=Don't Take It Out On Me (& Linda Gail Lewis)
TTITLE11=Earth Up Above (Grand Ole Moon Up Above) (& Linda Gail Lewis)
TTITLE12=Waitin' For A Train
TTITLE13=Love For All Seasons
TTITLE14=She Even Woke Me Up To Say Goodbye
TTITLE15=When The Grass Grows Over Me
TTITLE16=Wine Me Up
TTITLE17=Since I Met You Baby
TTITLE18=Workin' Man Blues
TTITLE19=Once More With Feeling (version 1)
TTITLE20=In Loving Memories (version 1)
TTITLE21=You Went Out Of Your Way (To Walk On Me)
TTITLE22=My Only Claim To Fame
TTITLE23=Brown Eyed Handsome Man
TTITLE24=In Loving Memories (version 2)
TTITLE25=Once More With Feeling (version 2)
EXTD=
EXTT0=
EXTT1=
EXTT2=
EXTT3=
EXTT4=
EXTT5=
EXTT6=
EXTT7=
EXTT8=
EXTT9=
EXTT10=
EXTT11=
EXTT12=
EXTT13=
EXTT14=
EXTT15=
EXTT16=
EXTT17=
EXTT18=
EXTT19=
EXTT20=
EXTT21=
EXTT22=
EXTT23=
EXTT24=
EXTT25=
PLAYORDER=
